<?xml version="1.0" encoding="UTF-8" standalone="no"?>
<!DOCTYPE svg PUBLIC "-//W3C//DTD SVG 1.1//EN"
 "http://www.w3.org/Graphics/SVG/1.1/DTD/svg11.dtd">
<!-- Generated by graphviz version 9.0.0 (0)
 -->
<!-- Title: Tree Pages: 1 -->
<svg width="671pt" height="318pt"
 viewBox="0.00 0.00 670.75 317.75" xmlns="http://www.w3.org/2000/svg" xmlns:xlink="http://www.w3.org/1999/xlink">
<g id="graph0" class="graph" transform="scale(1 1) rotate(0) translate(4 313.75)">
<title>Tree</title>
<polygon fill="white" stroke="none" points="-4,4 -4,-313.75 666.75,-313.75 666.75,4 -4,4"/>
<!-- 0 -->
<g id="node1" class="node">
<title>0</title>
<polygon fill="#fdf6f1" stroke="black" points="413.5,-309.75 233.25,-309.75 233.25,-254.5 413.5,-254.5 413.5,-309.75"/>
<text text-anchor="middle" x="323.38" y="-292.45" font-family="Helvetica,sans-Serif" font-size="14.00">bill_depth_mm &lt;= 16.45</text>
<text text-anchor="middle" x="323.38" y="-276.7" font-family="Helvetica,sans-Serif" font-size="14.00">samples = 100.0%</text>
<text text-anchor="middle" x="323.38" y="-260.95" font-family="Helvetica,sans-Serif" font-size="14.00">value = [0.425, 0.195, 0.38]</text>
</g>
<!-- 1 -->
<g id="node2" class="node">
<title>1</title>
<polygon fill="#853fe6" stroke="black" points="307.25,-218.5 149.5,-218.5 149.5,-163.25 307.25,-163.25 307.25,-218.5"/>
<text text-anchor="middle" x="228.38" y="-201.2" font-family="Helvetica,sans-Serif" font-size="14.00">bill_length_mm &lt;= 39.3</text>
<text text-anchor="middle" x="228.38" y="-185.45" font-family="Helvetica,sans-Serif" font-size="14.00">samples = 38.4%</text>
<text text-anchor="middle" x="228.38" y="-169.7" font-family="Helvetica,sans-Serif" font-size="14.00">value = [0.03, 0.0, 0.97]</text>
</g>
<!-- 0&#45;&gt;1 -->
<g id="edge1" class="edge">
<title>0&#45;&gt;1</title>
<path fill="none" stroke="black" d="M294.61,-254.1C285.41,-245.45 275.08,-235.75 265.37,-226.63"/>
<polygon fill="black" stroke="black" points="267.83,-224.14 258.14,-219.84 263.03,-229.24 267.83,-224.14"/>
<text text-anchor="middle" x="257.82" y="-238.37" font-family="Helvetica,sans-Serif" font-size="14.00">True</text>
</g>
<!-- 4 -->
<g id="node5" class="node">
<title>4</title>
<polygon fill="#f2bf9a" stroke="black" points="513.25,-218.5 325.5,-218.5 325.5,-163.25 513.25,-163.25 513.25,-218.5"/>
<text text-anchor="middle" x="419.38" y="-201.2" font-family="Helvetica,sans-Serif" font-size="14.00">body_mass_g &lt;= 5100.0</text>
<text text-anchor="middle" x="419.38" y="-185.45" font-family="Helvetica,sans-Serif" font-size="14.00">samples = 61.6%</text>
<text text-anchor="middle" x="419.38" y="-169.7" font-family="Helvetica,sans-Serif" font-size="14.00">value = [0.663, 0.313, 0.024]</text>
</g>
<!-- 0&#45;&gt;4 -->
<g id="edge4" class="edge">
<title>0&#45;&gt;4</title>
<path fill="none" stroke="black" d="M352.44,-254.1C361.74,-245.45 372.18,-235.75 381.99,-226.63"/>
<polygon fill="black" stroke="black" points="384.36,-229.21 389.3,-219.83 379.59,-224.08 384.36,-229.21"/>
<text text-anchor="middle" x="389.5" y="-238.36" font-family="Helvetica,sans-Serif" font-size="14.00">False</text>
</g>
<!-- 2 -->
<g id="node3" class="node">
<title>2</title>
<polygon fill="#e58139" stroke="black" points="142.75,-119.38 0,-119.38 0,-79.88 142.75,-79.88 142.75,-119.38"/>
<text text-anchor="middle" x="71.38" y="-102.08" font-family="Helvetica,sans-Serif" font-size="14.00">samples = 1.2%</text>
<text text-anchor="middle" x="71.38" y="-86.33" font-family="Helvetica,sans-Serif" font-size="14.00">value = [1.0, 0.0, 0.0]</text>
</g>
<!-- 1&#45;&gt;2 -->
<g id="edge2" class="edge">
<title>1&#45;&gt;2</title>
<path fill="none" stroke="black" d="M180.84,-162.85C159.75,-150.86 135.1,-136.85 114.53,-125.16"/>
<polygon fill="black" stroke="black" points="116.54,-122.28 106.12,-120.38 113.08,-128.36 116.54,-122.28"/>
</g>
<!-- 3 -->
<g id="node4" class="node">
<title>3</title>
<polygon fill="#8139e5" stroke="black" points="303.75,-119.38 161,-119.38 161,-79.88 303.75,-79.88 303.75,-119.38"/>
<text text-anchor="middle" x="232.38" y="-102.08" font-family="Helvetica,sans-Serif" font-size="14.00">samples = 37.2%</text>
<text text-anchor="middle" x="232.38" y="-86.33" font-family="Helvetica,sans-Serif" font-size="14.00">value = [0.0, 0.0, 1.0]</text>
</g>
<!-- 1&#45;&gt;3 -->
<g id="edge3" class="edge">
<title>1&#45;&gt;3</title>
<path fill="none" stroke="black" d="M229.58,-163.1C230.03,-153.06 230.54,-141.58 231,-131.22"/>
<polygon fill="black" stroke="black" points="234.5,-131.39 231.45,-121.24 227.51,-131.08 234.5,-131.39"/>
</g>
<!-- 5 -->
<g id="node6" class="node">
<title>5</title>
<polygon fill="#f1bd97" stroke="black" points="501.75,-127.25 329,-127.25 329,-72 501.75,-72 501.75,-127.25"/>
<text text-anchor="middle" x="415.38" y="-109.95" font-family="Helvetica,sans-Serif" font-size="14.00">bill_length_mm &lt;= 44.65</text>
<text text-anchor="middle" x="415.38" y="-94.2" font-family="Helvetica,sans-Serif" font-size="14.00">samples = 59.8%</text>
<text text-anchor="middle" x="415.38" y="-78.45" font-family="Helvetica,sans-Serif" font-size="14.00">value = [0.679, 0.321, 0.0]</text>
</g>
<!-- 4&#45;&gt;5 -->
<g id="edge5" class="edge">
<title>4&#45;&gt;5</title>
<path fill="none" stroke="black" d="M418.17,-163.1C417.84,-155.58 417.46,-147.25 417.1,-139.18"/>
<polygon fill="black" stroke="black" points="420.6,-139.04 416.66,-129.2 413.61,-139.35 420.6,-139.04"/>
</g>
<!-- 18 -->
<g id="node9" class="node">
<title>18</title>
<polygon fill="#8139e5" stroke="black" points="662.75,-119.38 520,-119.38 520,-79.88 662.75,-79.88 662.75,-119.38"/>
<text text-anchor="middle" x="591.38" y="-102.08" font-family="Helvetica,sans-Serif" font-size="14.00">samples = 1.8%</text>
<text text-anchor="middle" x="591.38" y="-86.33" font-family="Helvetica,sans-Serif" font-size="14.00">value = [0.0, 0.0, 1.0]</text>
</g>
<!-- 4&#45;&gt;18 -->
<g id="edge8" class="edge">
<title>4&#45;&gt;18</title>
<path fill="none" stroke="black" d="M471.45,-162.85C494.68,-150.8 521.86,-136.7 544.45,-124.97"/>
<polygon fill="black" stroke="black" points="545.88,-128.18 553.14,-120.46 542.65,-121.96 545.88,-128.18"/>
</g>
<!-- 6 -->
<g id="node7" class="node">
<title>6</title>
<polygon fill="#c0c0c0" stroke="black" points="406.38,-36 352.38,-36 352.38,0 406.38,0 406.38,-36"/>
<text text-anchor="middle" x="379.38" y="-12.57" font-family="Helvetica,sans-Serif" font-size="14.00">(...)</text>
</g>
<!-- 5&#45;&gt;6 -->
<g id="edge6" class="edge">
<title>5&#45;&gt;6</title>
<path fill="none" stroke="black" d="M403.19,-71.67C399.54,-63.6 395.54,-54.75 391.87,-46.64"/>
<polygon fill="black" stroke="black" points="395.08,-45.24 387.77,-37.57 388.7,-48.12 395.08,-45.24"/>
</g>
<!-- 11 -->
<g id="node8" class="node">
<title>11</title>
<polygon fill="#c0c0c0" stroke="black" points="478.38,-36 424.38,-36 424.38,0 478.38,0 478.38,-36"/>
<text text-anchor="middle" x="451.38" y="-12.57" font-family="Helvetica,sans-Serif" font-size="14.00">(...)</text>
</g>
<!-- 5&#45;&gt;11 -->
<g id="edge7" class="edge">
<title>5&#45;&gt;11</title>
<path fill="none" stroke="black" d="M427.56,-71.67C431.21,-63.6 435.21,-54.75 438.88,-46.64"/>
<polygon fill="black" stroke="black" points="442.05,-48.12 442.98,-37.57 435.67,-45.24 442.05,-48.12"/>
</g>
</g>
</svg>
