<?xml version="1.0" encoding="UTF-8" standalone="no"?>
<!DOCTYPE svg PUBLIC "-//W3C//DTD SVG 1.1//EN"
 "http://www.w3.org/Graphics/SVG/1.1/DTD/svg11.dtd">
<!-- Generated by graphviz version 9.0.0 (0)
 -->
<!-- Title: Tree Pages: 1 -->
<svg width="768pt" height="318pt"
 viewBox="0.00 0.00 767.75 317.75" xmlns="http://www.w3.org/2000/svg" xmlns:xlink="http://www.w3.org/1999/xlink">
<g id="graph0" class="graph" transform="scale(1 1) rotate(0) translate(4 313.75)">
<title>Tree</title>
<polygon fill="white" stroke="none" points="-4,4 -4,-313.75 763.75,-313.75 763.75,4 -4,4"/>
<!-- 0 -->
<g id="node1" class="node">
<title>0</title>
<polygon fill="#fae6d8" stroke="black" points="484.25,-309.75 296.5,-309.75 296.5,-254.5 484.25,-254.5 484.25,-309.75"/>
<text text-anchor="middle" x="390.38" y="-292.45" font-family="Helvetica,sans-Serif" font-size="14.00">flipper_length_mm &lt;= 206.0</text>
<text text-anchor="middle" x="390.38" y="-276.7" font-family="Helvetica,sans-Serif" font-size="14.00">samples = 100.0%</text>
<text text-anchor="middle" x="390.38" y="-260.95" font-family="Helvetica,sans-Serif" font-size="14.00">value = [0.466, 0.199, 0.335]</text>
</g>
<!-- 1 -->
<g id="node2" class="node">
<title>1</title>
<polygon fill="#f0b58b" stroke="black" points="377.75,-218.5 205,-218.5 205,-163.25 377.75,-163.25 377.75,-218.5"/>
<text text-anchor="middle" x="291.38" y="-201.2" font-family="Helvetica,sans-Serif" font-size="14.00">bill_depth_mm &lt;= 17.25</text>
<text text-anchor="middle" x="291.38" y="-185.45" font-family="Helvetica,sans-Serif" font-size="14.00">samples = 63.5%</text>
<text text-anchor="middle" x="291.38" y="-169.7" font-family="Helvetica,sans-Serif" font-size="14.00">value = [0.707, 0.293, 0.0]</text>
</g>
<!-- 0&#45;&gt;1 -->
<g id="edge1" class="edge">
<title>0&#45;&gt;1</title>
<path fill="none" stroke="black" d="M360.4,-254.1C350.71,-245.37 339.83,-235.56 329.62,-226.35"/>
<polygon fill="black" stroke="black" points="332.14,-223.91 322.37,-219.82 327.45,-229.11 332.14,-223.91"/>
<text text-anchor="middle" x="322.54" y="-238.34" font-family="Helvetica,sans-Serif" font-size="14.00">True</text>
</g>
<!-- 28 -->
<g id="node9" class="node">
<title>28</title>
<polygon fill="#8540e6" stroke="black" points="583.25,-218.5 395.5,-218.5 395.5,-163.25 583.25,-163.25 583.25,-218.5"/>
<text text-anchor="middle" x="489.38" y="-201.2" font-family="Helvetica,sans-Serif" font-size="14.00">bill_depth_mm &lt;= 18.1</text>
<text text-anchor="middle" x="489.38" y="-185.45" font-family="Helvetica,sans-Serif" font-size="14.00">samples = 36.5%</text>
<text text-anchor="middle" x="489.38" y="-169.7" font-family="Helvetica,sans-Serif" font-size="14.00">value = [0.011, 0.022, 0.967]</text>
</g>
<!-- 0&#45;&gt;28 -->
<g id="edge8" class="edge">
<title>0&#45;&gt;28</title>
<path fill="none" stroke="black" d="M420.35,-254.1C430.04,-245.37 440.92,-235.56 451.13,-226.35"/>
<polygon fill="black" stroke="black" points="453.3,-229.11 458.38,-219.82 448.61,-223.91 453.3,-229.11"/>
<text text-anchor="middle" x="458.21" y="-238.34" font-family="Helvetica,sans-Serif" font-size="14.00">False</text>
</g>
<!-- 2 -->
<g id="node3" class="node">
<title>2</title>
<polygon fill="#e88e4e" stroke="black" points="184.75,-127.25 0,-127.25 0,-72 184.75,-72 184.75,-127.25"/>
<text text-anchor="middle" x="92.38" y="-109.95" font-family="Helvetica,sans-Serif" font-size="14.00">flipper_length_mm &lt;= 186.0</text>
<text text-anchor="middle" x="92.38" y="-94.2" font-family="Helvetica,sans-Serif" font-size="14.00">samples = 12.0%</text>
<text text-anchor="middle" x="92.38" y="-78.45" font-family="Helvetica,sans-Serif" font-size="14.00">value = [0.903, 0.097, 0.0]</text>
</g>
<!-- 1&#45;&gt;2 -->
<g id="edge2" class="edge">
<title>1&#45;&gt;2</title>
<path fill="none" stroke="black" d="M231.13,-162.85C209.7,-153.24 185.38,-142.33 163.14,-132.36"/>
<polygon fill="black" stroke="black" points="164.7,-129.23 154.14,-128.33 161.83,-135.61 164.7,-129.23"/>
</g>
<!-- 7 -->
<g id="node6" class="node">
<title>7</title>
<polygon fill="#f2c19d" stroke="black" points="387.75,-127.25 203,-127.25 203,-72 387.75,-72 387.75,-127.25"/>
<text text-anchor="middle" x="295.38" y="-109.95" font-family="Helvetica,sans-Serif" font-size="14.00">flipper_length_mm &lt;= 192.5</text>
<text text-anchor="middle" x="295.38" y="-94.2" font-family="Helvetica,sans-Serif" font-size="14.00">samples = 51.5%</text>
<text text-anchor="middle" x="295.38" y="-78.45" font-family="Helvetica,sans-Serif" font-size="14.00">value = [0.664, 0.336, 0.0]</text>
</g>
<!-- 1&#45;&gt;7 -->
<g id="edge5" class="edge">
<title>1&#45;&gt;7</title>
<path fill="none" stroke="black" d="M292.58,-163.1C292.91,-155.58 293.29,-147.25 293.65,-139.18"/>
<polygon fill="black" stroke="black" points="297.14,-139.35 294.09,-129.2 290.15,-139.04 297.14,-139.35"/>
</g>
<!-- 3 -->
<g id="node4" class="node">
<title>3</title>
<polygon fill="#c0c0c0" stroke="black" points="83.38,-36 29.38,-36 29.38,0 83.38,0 83.38,-36"/>
<text text-anchor="middle" x="56.38" y="-12.57" font-family="Helvetica,sans-Serif" font-size="14.00">(...)</text>
</g>
<!-- 2&#45;&gt;3 -->
<g id="edge3" class="edge">
<title>2&#45;&gt;3</title>
<path fill="none" stroke="black" d="M80.19,-71.67C76.54,-63.6 72.54,-54.75 68.87,-46.64"/>
<polygon fill="black" stroke="black" points="72.08,-45.24 64.77,-37.57 65.7,-48.12 72.08,-45.24"/>
</g>
<!-- 4 -->
<g id="node5" class="node">
<title>4</title>
<polygon fill="#c0c0c0" stroke="black" points="155.38,-36 101.38,-36 101.38,0 155.38,0 155.38,-36"/>
<text text-anchor="middle" x="128.38" y="-12.57" font-family="Helvetica,sans-Serif" font-size="14.00">(...)</text>
</g>
<!-- 2&#45;&gt;4 -->
<g id="edge4" class="edge">
<title>2&#45;&gt;4</title>
<path fill="none" stroke="black" d="M104.56,-71.67C108.21,-63.6 112.21,-54.75 115.88,-46.64"/>
<polygon fill="black" stroke="black" points="119.05,-48.12 119.98,-37.57 112.67,-45.24 119.05,-48.12"/>
</g>
<!-- 8 -->
<g id="node7" class="node">
<title>8</title>
<polygon fill="#c0c0c0" stroke="black" points="286.38,-36 232.38,-36 232.38,0 286.38,0 286.38,-36"/>
<text text-anchor="middle" x="259.38" y="-12.57" font-family="Helvetica,sans-Serif" font-size="14.00">(...)</text>
</g>
<!-- 7&#45;&gt;8 -->
<g id="edge6" class="edge">
<title>7&#45;&gt;8</title>
<path fill="none" stroke="black" d="M283.19,-71.67C279.54,-63.6 275.54,-54.75 271.87,-46.64"/>
<polygon fill="black" stroke="black" points="275.08,-45.24 267.77,-37.57 268.7,-48.12 275.08,-45.24"/>
</g>
<!-- 21 -->
<g id="node8" class="node">
<title>21</title>
<polygon fill="#c0c0c0" stroke="black" points="358.38,-36 304.38,-36 304.38,0 358.38,0 358.38,-36"/>
<text text-anchor="middle" x="331.38" y="-12.57" font-family="Helvetica,sans-Serif" font-size="14.00">(...)</text>
</g>
<!-- 7&#45;&gt;21 -->
<g id="edge7" class="edge">
<title>7&#45;&gt;21</title>
<path fill="none" stroke="black" d="M307.56,-71.67C311.21,-63.6 315.21,-54.75 318.88,-46.64"/>
<polygon fill="black" stroke="black" points="322.05,-48.12 322.98,-37.57 315.67,-45.24 322.05,-48.12"/>
</g>
<!-- 29 -->
<g id="node10" class="node">
<title>29</title>
<polygon fill="#8139e5" stroke="black" points="556.75,-119.38 414,-119.38 414,-79.88 556.75,-79.88 556.75,-119.38"/>
<text text-anchor="middle" x="485.38" y="-102.08" font-family="Helvetica,sans-Serif" font-size="14.00">samples = 34.7%</text>
<text text-anchor="middle" x="485.38" y="-86.33" font-family="Helvetica,sans-Serif" font-size="14.00">value = [0.0, 0.0, 1.0]</text>
</g>
<!-- 28&#45;&gt;29 -->
<g id="edge9" class="edge">
<title>28&#45;&gt;29</title>
<path fill="none" stroke="black" d="M488.17,-163.1C487.72,-153.06 487.21,-141.58 486.75,-131.22"/>
<polygon fill="black" stroke="black" points="490.24,-131.08 486.3,-121.24 483.25,-131.39 490.24,-131.08"/>
</g>
<!-- 30 -->
<g id="node11" class="node">
<title>30</title>
<polygon fill="#9cf2c0" stroke="black" points="759.75,-127.25 575,-127.25 575,-72 759.75,-72 759.75,-127.25"/>
<text text-anchor="middle" x="667.38" y="-109.95" font-family="Helvetica,sans-Serif" font-size="14.00">flipper_length_mm &lt;= 209.0</text>
<text text-anchor="middle" x="667.38" y="-94.2" font-family="Helvetica,sans-Serif" font-size="14.00">samples = 1.8%</text>
<text text-anchor="middle" x="667.38" y="-78.45" font-family="Helvetica,sans-Serif" font-size="14.00">value = [0.333, 0.667, 0.0]</text>
</g>
<!-- 28&#45;&gt;30 -->
<g id="edge10" class="edge">
<title>28&#45;&gt;30</title>
<path fill="none" stroke="black" d="M543.26,-162.85C562.17,-153.37 583.6,-142.63 603.26,-132.77"/>
<polygon fill="black" stroke="black" points="604.64,-136 612.01,-128.39 601.5,-129.74 604.64,-136"/>
</g>
<!-- 31 -->
<g id="node12" class="node">
<title>31</title>
<polygon fill="#c0c0c0" stroke="black" points="658.38,-36 604.38,-36 604.38,0 658.38,0 658.38,-36"/>
<text text-anchor="middle" x="631.38" y="-12.57" font-family="Helvetica,sans-Serif" font-size="14.00">(...)</text>
</g>
<!-- 30&#45;&gt;31 -->
<g id="edge11" class="edge">
<title>30&#45;&gt;31</title>
<path fill="none" stroke="black" d="M655.19,-71.67C651.54,-63.6 647.54,-54.75 643.87,-46.64"/>
<polygon fill="black" stroke="black" points="647.08,-45.24 639.77,-37.57 640.7,-48.12 647.08,-45.24"/>
</g>
<!-- 32 -->
<g id="node13" class="node">
<title>32</title>
<polygon fill="#c0c0c0" stroke="black" points="730.38,-36 676.38,-36 676.38,0 730.38,0 730.38,-36"/>
<text text-anchor="middle" x="703.38" y="-12.57" font-family="Helvetica,sans-Serif" font-size="14.00">(...)</text>
</g>
<!-- 30&#45;&gt;32 -->
<g id="edge12" class="edge">
<title>30&#45;&gt;32</title>
<path fill="none" stroke="black" d="M679.56,-71.67C683.21,-63.6 687.21,-54.75 690.88,-46.64"/>
<polygon fill="black" stroke="black" points="694.05,-48.12 694.98,-37.57 687.67,-45.24 694.05,-48.12"/>
</g>
</g>
</svg>
