<?xml version="1.0" encoding="UTF-8" standalone="no"?>
<!DOCTYPE svg PUBLIC "-//W3C//DTD SVG 1.1//EN"
 "http://www.w3.org/Graphics/SVG/1.1/DTD/svg11.dtd">
<!-- Generated by graphviz version 9.0.0 (0)
 -->
<!-- Title: Tree Pages: 1 -->
<svg width="735pt" height="318pt"
 viewBox="0.00 0.00 735.00 317.75" xmlns="http://www.w3.org/2000/svg" xmlns:xlink="http://www.w3.org/1999/xlink">
<g id="graph0" class="graph" transform="scale(1 1) rotate(0) translate(4 313.75)">
<title>Tree</title>
<polygon fill="white" stroke="none" points="-4,4 -4,-313.75 731,-313.75 731,4 -4,4"/>
<!-- 0 -->
<g id="node1" class="node">
<title>0</title>
<polygon fill="#fdf4ee" stroke="black" points="442.25,-309.75 254.5,-309.75 254.5,-254.5 442.25,-254.5 442.25,-309.75"/>
<text text-anchor="middle" x="348.38" y="-292.45" font-family="Helvetica,sans-Serif" font-size="14.00">bill_length_mm &lt;= 43.15</text>
<text text-anchor="middle" x="348.38" y="-276.7" font-family="Helvetica,sans-Serif" font-size="14.00">samples = 100.0%</text>
<text text-anchor="middle" x="348.38" y="-260.95" font-family="Helvetica,sans-Serif" font-size="14.00">value = [0.417, 0.222, 0.361]</text>
</g>
<!-- 1 -->
<g id="node2" class="node">
<title>1</title>
<polygon fill="#e78d4b" stroke="black" points="339.25,-218.5 151.5,-218.5 151.5,-163.25 339.25,-163.25 339.25,-218.5"/>
<text text-anchor="middle" x="245.38" y="-201.2" font-family="Helvetica,sans-Serif" font-size="14.00">bill_depth_mm &lt;= 15.35</text>
<text text-anchor="middle" x="245.38" y="-185.45" font-family="Helvetica,sans-Serif" font-size="14.00">samples = 42.5%</text>
<text text-anchor="middle" x="245.38" y="-169.7" font-family="Helvetica,sans-Serif" font-size="14.00">value = [0.912, 0.053, 0.035]</text>
</g>
<!-- 0&#45;&gt;1 -->
<g id="edge1" class="edge">
<title>0&#45;&gt;1</title>
<path fill="none" stroke="black" d="M317.19,-254.1C307.01,-245.28 295.56,-235.36 284.85,-226.08"/>
<polygon fill="black" stroke="black" points="287.45,-223.7 277.6,-219.79 282.86,-228.99 287.45,-223.7"/>
<text text-anchor="middle" x="278.24" y="-238.31" font-family="Helvetica,sans-Serif" font-size="14.00">True</text>
</g>
<!-- 14 -->
<g id="node7" class="node">
<title>14</title>
<polygon fill="#cdb1f5" stroke="black" points="545.25,-218.5 357.5,-218.5 357.5,-163.25 545.25,-163.25 545.25,-218.5"/>
<text text-anchor="middle" x="451.38" y="-201.2" font-family="Helvetica,sans-Serif" font-size="14.00">bill_length_mm &lt;= 50.05</text>
<text text-anchor="middle" x="451.38" y="-185.45" font-family="Helvetica,sans-Serif" font-size="14.00">samples = 57.5%</text>
<text text-anchor="middle" x="451.38" y="-169.7" font-family="Helvetica,sans-Serif" font-size="14.00">value = [0.046, 0.349, 0.605]</text>
</g>
<!-- 0&#45;&gt;14 -->
<g id="edge6" class="edge">
<title>0&#45;&gt;14</title>
<path fill="none" stroke="black" d="M379.56,-254.1C389.74,-245.28 401.19,-235.36 411.9,-226.08"/>
<polygon fill="black" stroke="black" points="413.89,-228.99 419.15,-219.79 409.3,-223.7 413.89,-228.99"/>
<text text-anchor="middle" x="418.51" y="-238.31" font-family="Helvetica,sans-Serif" font-size="14.00">False</text>
</g>
<!-- 2 -->
<g id="node3" class="node">
<title>2</title>
<polygon fill="#8139e5" stroke="black" points="142.75,-119.38 0,-119.38 0,-79.88 142.75,-79.88 142.75,-119.38"/>
<text text-anchor="middle" x="71.38" y="-102.08" font-family="Helvetica,sans-Serif" font-size="14.00">samples = 2.5%</text>
<text text-anchor="middle" x="71.38" y="-86.33" font-family="Helvetica,sans-Serif" font-size="14.00">value = [0.0, 0.0, 1.0]</text>
</g>
<!-- 1&#45;&gt;2 -->
<g id="edge2" class="edge">
<title>1&#45;&gt;2</title>
<path fill="none" stroke="black" d="M192.7,-162.85C169.19,-150.8 141.7,-136.7 118.84,-124.97"/>
<polygon fill="black" stroke="black" points="120.54,-121.91 110.04,-120.46 117.34,-128.14 120.54,-121.91"/>
</g>
<!-- 3 -->
<g id="node4" class="node">
<title>3</title>
<polygon fill="#e68844" stroke="black" points="333.75,-127.25 161,-127.25 161,-72 333.75,-72 333.75,-127.25"/>
<text text-anchor="middle" x="247.38" y="-109.95" font-family="Helvetica,sans-Serif" font-size="14.00">bill_length_mm &lt;= 42.3</text>
<text text-anchor="middle" x="247.38" y="-94.2" font-family="Helvetica,sans-Serif" font-size="14.00">samples = 40.0%</text>
<text text-anchor="middle" x="247.38" y="-78.45" font-family="Helvetica,sans-Serif" font-size="14.00">value = [0.945, 0.055, 0.0]</text>
</g>
<!-- 1&#45;&gt;3 -->
<g id="edge3" class="edge">
<title>1&#45;&gt;3</title>
<path fill="none" stroke="black" d="M245.98,-163.1C246.14,-155.58 246.33,-147.25 246.51,-139.18"/>
<polygon fill="black" stroke="black" points="250.01,-139.28 246.73,-129.21 243.01,-139.12 250.01,-139.28"/>
</g>
<!-- 4 -->
<g id="node5" class="node">
<title>4</title>
<polygon fill="#c0c0c0" stroke="black" points="238.38,-36 184.38,-36 184.38,0 238.38,0 238.38,-36"/>
<text text-anchor="middle" x="211.38" y="-12.57" font-family="Helvetica,sans-Serif" font-size="14.00">(...)</text>
</g>
<!-- 3&#45;&gt;4 -->
<g id="edge4" class="edge">
<title>3&#45;&gt;4</title>
<path fill="none" stroke="black" d="M235.19,-71.67C231.54,-63.6 227.54,-54.75 223.87,-46.64"/>
<polygon fill="black" stroke="black" points="227.08,-45.24 219.77,-37.57 220.7,-48.12 227.08,-45.24"/>
</g>
<!-- 11 -->
<g id="node6" class="node">
<title>11</title>
<polygon fill="#c0c0c0" stroke="black" points="310.38,-36 256.38,-36 256.38,0 310.38,0 310.38,-36"/>
<text text-anchor="middle" x="283.38" y="-12.57" font-family="Helvetica,sans-Serif" font-size="14.00">(...)</text>
</g>
<!-- 3&#45;&gt;11 -->
<g id="edge5" class="edge">
<title>3&#45;&gt;11</title>
<path fill="none" stroke="black" d="M259.56,-71.67C263.21,-63.6 267.21,-54.75 270.88,-46.64"/>
<polygon fill="black" stroke="black" points="274.05,-48.12 274.98,-37.57 267.67,-45.24 274.05,-48.12"/>
</g>
<!-- 15 -->
<g id="node8" class="node">
<title>15</title>
<polygon fill="#b388ef" stroke="black" points="543.25,-127.25 355.5,-127.25 355.5,-72 543.25,-72 543.25,-127.25"/>
<text text-anchor="middle" x="449.38" y="-109.95" font-family="Helvetica,sans-Serif" font-size="14.00">flipper_length_mm &lt;= 205.0</text>
<text text-anchor="middle" x="449.38" y="-94.2" font-family="Helvetica,sans-Serif" font-size="14.00">samples = 40.6%</text>
<text text-anchor="middle" x="449.38" y="-78.45" font-family="Helvetica,sans-Serif" font-size="14.00">value = [0.062, 0.241, 0.696]</text>
</g>
<!-- 14&#45;&gt;15 -->
<g id="edge7" class="edge">
<title>14&#45;&gt;15</title>
<path fill="none" stroke="black" d="M450.77,-163.1C450.61,-155.58 450.42,-147.25 450.24,-139.18"/>
<polygon fill="black" stroke="black" points="453.74,-139.12 450.02,-129.21 446.74,-139.28 453.74,-139.12"/>
</g>
<!-- 26 -->
<g id="node11" class="node">
<title>26</title>
<polygon fill="#a4f3c5" stroke="black" points="727,-127.25 561.75,-127.25 561.75,-72 727,-72 727,-127.25"/>
<text text-anchor="middle" x="644.38" y="-109.95" font-family="Helvetica,sans-Serif" font-size="14.00">body_mass_g &lt;= 4900.0</text>
<text text-anchor="middle" x="644.38" y="-94.2" font-family="Helvetica,sans-Serif" font-size="14.00">samples = 16.9%</text>
<text text-anchor="middle" x="644.38" y="-78.45" font-family="Helvetica,sans-Serif" font-size="14.00">value = [0.0, 0.65, 0.35]</text>
</g>
<!-- 14&#45;&gt;26 -->
<g id="edge10" class="edge">
<title>14&#45;&gt;26</title>
<path fill="none" stroke="black" d="M509.81,-162.85C530.5,-153.29 553.97,-142.43 575.45,-132.5"/>
<polygon fill="black" stroke="black" points="576.83,-135.72 584.44,-128.34 573.89,-129.36 576.83,-135.72"/>
</g>
<!-- 16 -->
<g id="node9" class="node">
<title>16</title>
<polygon fill="#c0c0c0" stroke="black" points="457.38,-36 403.38,-36 403.38,0 457.38,0 457.38,-36"/>
<text text-anchor="middle" x="430.38" y="-12.57" font-family="Helvetica,sans-Serif" font-size="14.00">(...)</text>
</g>
<!-- 15&#45;&gt;16 -->
<g id="edge8" class="edge">
<title>15&#45;&gt;16</title>
<path fill="none" stroke="black" d="M442.94,-71.67C441.06,-63.79 439,-55.15 437.1,-47.2"/>
<polygon fill="black" stroke="black" points="440.55,-46.58 434.83,-37.66 433.75,-48.2 440.55,-46.58"/>
</g>
<!-- 21 -->
<g id="node10" class="node">
<title>21</title>
<polygon fill="#c0c0c0" stroke="black" points="529.38,-36 475.38,-36 475.38,0 529.38,0 529.38,-36"/>
<text text-anchor="middle" x="502.38" y="-12.57" font-family="Helvetica,sans-Serif" font-size="14.00">(...)</text>
</g>
<!-- 15&#45;&gt;21 -->
<g id="edge9" class="edge">
<title>15&#45;&gt;21</title>
<path fill="none" stroke="black" d="M467.32,-71.67C472.93,-63.24 479.12,-53.94 484.71,-45.54"/>
<polygon fill="black" stroke="black" points="487.47,-47.72 490.09,-37.45 481.64,-43.84 487.47,-47.72"/>
</g>
<!-- 27 -->
<g id="node12" class="node">
<title>27</title>
<polygon fill="#c0c0c0" stroke="black" points="617.38,-36 563.38,-36 563.38,0 617.38,0 617.38,-36"/>
<text text-anchor="middle" x="590.38" y="-12.57" font-family="Helvetica,sans-Serif" font-size="14.00">(...)</text>
</g>
<!-- 26&#45;&gt;27 -->
<g id="edge11" class="edge">
<title>26&#45;&gt;27</title>
<path fill="none" stroke="black" d="M626.09,-71.67C620.38,-63.24 614.07,-53.94 608.37,-45.54"/>
<polygon fill="black" stroke="black" points="611.39,-43.76 602.88,-37.44 605.6,-47.69 611.39,-43.76"/>
</g>
<!-- 28 -->
<g id="node13" class="node">
<title>28</title>
<polygon fill="#c0c0c0" stroke="black" points="689.38,-36 635.38,-36 635.38,0 689.38,0 689.38,-36"/>
<text text-anchor="middle" x="662.38" y="-12.57" font-family="Helvetica,sans-Serif" font-size="14.00">(...)</text>
</g>
<!-- 26&#45;&gt;28 -->
<g id="edge12" class="edge">
<title>26&#45;&gt;28</title>
<path fill="none" stroke="black" d="M650.47,-71.67C652.25,-63.79 654.2,-55.15 656,-47.2"/>
<polygon fill="black" stroke="black" points="659.36,-48.19 658.15,-37.67 652.54,-46.65 659.36,-48.19"/>
</g>
</g>
</svg>
