<?xml version="1.0" encoding="UTF-8" standalone="no"?>
<!DOCTYPE svg PUBLIC "-//W3C//DTD SVG 1.1//EN"
 "http://www.w3.org/Graphics/SVG/1.1/DTD/svg11.dtd">
<!-- Generated by graphviz version 9.0.0 (0)
 -->
<!-- Title: Tree Pages: 1 -->
<svg width="713pt" height="318pt"
 viewBox="0.00 0.00 712.50 317.75" xmlns="http://www.w3.org/2000/svg" xmlns:xlink="http://www.w3.org/1999/xlink">
<g id="graph0" class="graph" transform="scale(1 1) rotate(0) translate(4 313.75)">
<title>Tree</title>
<polygon fill="white" stroke="none" points="-4,4 -4,-313.75 708.5,-313.75 708.5,4 -4,4"/>
<!-- 0 -->
<g id="node1" class="node">
<title>0</title>
<polygon fill="#fdf6f2" stroke="black" points="419.25,-309.75 231.5,-309.75 231.5,-254.5 419.25,-254.5 419.25,-309.75"/>
<text text-anchor="middle" x="325.38" y="-292.45" font-family="Helvetica,sans-Serif" font-size="14.00">bill_depth_mm &lt;= 16.5</text>
<text text-anchor="middle" x="325.38" y="-276.7" font-family="Helvetica,sans-Serif" font-size="14.00">samples = 100.0%</text>
<text text-anchor="middle" x="325.38" y="-260.95" font-family="Helvetica,sans-Serif" font-size="14.00">value = [0.432, 0.177, 0.391]</text>
</g>
<!-- 1 -->
<g id="node2" class="node">
<title>1</title>
<polygon fill="#8743e6" stroke="black" points="312.75,-218.5 140,-218.5 140,-163.25 312.75,-163.25 312.75,-218.5"/>
<text text-anchor="middle" x="226.38" y="-201.2" font-family="Helvetica,sans-Serif" font-size="14.00">bill_length_mm &lt;= 39.3</text>
<text text-anchor="middle" x="226.38" y="-185.45" font-family="Helvetica,sans-Serif" font-size="14.00">samples = 35.6%</text>
<text text-anchor="middle" x="226.38" y="-169.7" font-family="Helvetica,sans-Serif" font-size="14.00">value = [0.049, 0.0, 0.951]</text>
</g>
<!-- 0&#45;&gt;1 -->
<g id="edge1" class="edge">
<title>0&#45;&gt;1</title>
<path fill="none" stroke="black" d="M295.4,-254.1C285.71,-245.37 274.83,-235.56 264.62,-226.35"/>
<polygon fill="black" stroke="black" points="267.14,-223.91 257.37,-219.82 262.45,-229.11 267.14,-223.91"/>
<text text-anchor="middle" x="257.54" y="-238.34" font-family="Helvetica,sans-Serif" font-size="14.00">True</text>
</g>
<!-- 4 -->
<g id="node5" class="node">
<title>4</title>
<polygon fill="#f1bb93" stroke="black" points="518.25,-218.5 330.5,-218.5 330.5,-163.25 518.25,-163.25 518.25,-218.5"/>
<text text-anchor="middle" x="424.38" y="-201.2" font-family="Helvetica,sans-Serif" font-size="14.00">bill_length_mm &lt;= 44.25</text>
<text text-anchor="middle" x="424.38" y="-185.45" font-family="Helvetica,sans-Serif" font-size="14.00">samples = 64.4%</text>
<text text-anchor="middle" x="424.38" y="-169.7" font-family="Helvetica,sans-Serif" font-size="14.00">value = [0.675, 0.288, 0.037]</text>
</g>
<!-- 0&#45;&gt;4 -->
<g id="edge4" class="edge">
<title>0&#45;&gt;4</title>
<path fill="none" stroke="black" d="M355.35,-254.1C365.04,-245.37 375.92,-235.56 386.13,-226.35"/>
<polygon fill="black" stroke="black" points="388.3,-229.11 393.38,-219.82 383.61,-223.91 388.3,-229.11"/>
<text text-anchor="middle" x="393.21" y="-238.34" font-family="Helvetica,sans-Serif" font-size="14.00">False</text>
</g>
<!-- 2 -->
<g id="node3" class="node">
<title>2</title>
<polygon fill="#e58139" stroke="black" points="142.75,-119.38 0,-119.38 0,-79.88 142.75,-79.88 142.75,-119.38"/>
<text text-anchor="middle" x="71.38" y="-102.08" font-family="Helvetica,sans-Serif" font-size="14.00">samples = 1.8%</text>
<text text-anchor="middle" x="71.38" y="-86.33" font-family="Helvetica,sans-Serif" font-size="14.00">value = [1.0, 0.0, 0.0]</text>
</g>
<!-- 1&#45;&gt;2 -->
<g id="edge2" class="edge">
<title>1&#45;&gt;2</title>
<path fill="none" stroke="black" d="M179.45,-162.85C158.72,-150.92 134.51,-136.98 114.26,-125.32"/>
<polygon fill="black" stroke="black" points="116.1,-122.34 105.69,-120.38 112.61,-128.41 116.1,-122.34"/>
</g>
<!-- 3 -->
<g id="node4" class="node">
<title>3</title>
<polygon fill="#8139e5" stroke="black" points="303.75,-119.38 161,-119.38 161,-79.88 303.75,-79.88 303.75,-119.38"/>
<text text-anchor="middle" x="232.38" y="-102.08" font-family="Helvetica,sans-Serif" font-size="14.00">samples = 33.7%</text>
<text text-anchor="middle" x="232.38" y="-86.33" font-family="Helvetica,sans-Serif" font-size="14.00">value = [0.0, 0.0, 1.0]</text>
</g>
<!-- 1&#45;&gt;3 -->
<g id="edge3" class="edge">
<title>1&#45;&gt;3</title>
<path fill="none" stroke="black" d="M228.18,-163.1C228.86,-152.95 229.64,-141.33 230.34,-130.88"/>
<polygon fill="black" stroke="black" points="233.81,-131.45 230.99,-121.24 226.83,-130.98 233.81,-131.45"/>
</g>
<!-- 5 -->
<g id="node6" class="node">
<title>5</title>
<polygon fill="#e6853f" stroke="black" points="505.75,-127.25 333,-127.25 333,-72 505.75,-72 505.75,-127.25"/>
<text text-anchor="middle" x="419.38" y="-109.95" font-family="Helvetica,sans-Serif" font-size="14.00">bill_depth_mm &lt;= 16.75</text>
<text text-anchor="middle" x="419.38" y="-94.2" font-family="Helvetica,sans-Serif" font-size="14.00">samples = 43.6%</text>
<text text-anchor="middle" x="419.38" y="-78.45" font-family="Helvetica,sans-Serif" font-size="14.00">value = [0.973, 0.027, 0.0]</text>
</g>
<!-- 4&#45;&gt;5 -->
<g id="edge5" class="edge">
<title>4&#45;&gt;5</title>
<path fill="none" stroke="black" d="M422.87,-163.1C422.45,-155.58 421.99,-147.25 421.54,-139.18"/>
<polygon fill="black" stroke="black" points="425.03,-138.99 420.98,-129.2 418.04,-139.38 425.03,-138.99"/>
</g>
<!-- 16 -->
<g id="node9" class="node">
<title>16</title>
<polygon fill="#5fea99" stroke="black" points="704.5,-127.25 524.25,-127.25 524.25,-72 704.5,-72 704.5,-127.25"/>
<text text-anchor="middle" x="614.38" y="-109.95" font-family="Helvetica,sans-Serif" font-size="14.00">bill_length_mm &lt;= 55.85</text>
<text text-anchor="middle" x="614.38" y="-94.2" font-family="Helvetica,sans-Serif" font-size="14.00">samples = 20.9%</text>
<text text-anchor="middle" x="614.38" y="-78.45" font-family="Helvetica,sans-Serif" font-size="14.00">value = [0.057, 0.83, 0.113]</text>
</g>
<!-- 4&#45;&gt;16 -->
<g id="edge8" class="edge">
<title>4&#45;&gt;16</title>
<path fill="none" stroke="black" d="M481.9,-162.85C502.27,-153.29 525.37,-142.43 546.52,-132.5"/>
<polygon fill="black" stroke="black" points="547.79,-135.77 555.35,-128.35 544.81,-129.43 547.79,-135.77"/>
</g>
<!-- 6 -->
<g id="node7" class="node">
<title>6</title>
<polygon fill="#c0c0c0" stroke="black" points="423.38,-36 369.38,-36 369.38,0 423.38,0 423.38,-36"/>
<text text-anchor="middle" x="396.38" y="-12.57" font-family="Helvetica,sans-Serif" font-size="14.00">(...)</text>
</g>
<!-- 5&#45;&gt;6 -->
<g id="edge6" class="edge">
<title>5&#45;&gt;6</title>
<path fill="none" stroke="black" d="M411.59,-71.67C409.31,-63.79 406.82,-55.15 404.52,-47.2"/>
<polygon fill="black" stroke="black" points="407.9,-46.28 401.76,-37.65 401.17,-48.22 407.9,-46.28"/>
</g>
<!-- 9 -->
<g id="node8" class="node">
<title>9</title>
<polygon fill="#c0c0c0" stroke="black" points="495.38,-36 441.38,-36 441.38,0 495.38,0 495.38,-36"/>
<text text-anchor="middle" x="468.38" y="-12.57" font-family="Helvetica,sans-Serif" font-size="14.00">(...)</text>
</g>
<!-- 5&#45;&gt;9 -->
<g id="edge7" class="edge">
<title>5&#45;&gt;9</title>
<path fill="none" stroke="black" d="M435.96,-71.67C441.1,-63.33 446.75,-54.15 451.87,-45.82"/>
<polygon fill="black" stroke="black" points="454.74,-47.83 457,-37.48 448.78,-44.16 454.74,-47.83"/>
</g>
<!-- 17 -->
<g id="node10" class="node">
<title>17</title>
<polygon fill="#c0c0c0" stroke="black" points="592.38,-36 538.38,-36 538.38,0 592.38,0 592.38,-36"/>
<text text-anchor="middle" x="565.38" y="-12.57" font-family="Helvetica,sans-Serif" font-size="14.00">(...)</text>
</g>
<!-- 16&#45;&gt;17 -->
<g id="edge9" class="edge">
<title>16&#45;&gt;17</title>
<path fill="none" stroke="black" d="M597.79,-71.67C592.65,-63.33 587,-54.15 581.88,-45.82"/>
<polygon fill="black" stroke="black" points="584.97,-44.16 576.75,-37.48 579.01,-47.83 584.97,-44.16"/>
</g>
<!-- 30 -->
<g id="node11" class="node">
<title>30</title>
<polygon fill="#c0c0c0" stroke="black" points="664.38,-36 610.38,-36 610.38,0 664.38,0 664.38,-36"/>
<text text-anchor="middle" x="637.38" y="-12.57" font-family="Helvetica,sans-Serif" font-size="14.00">(...)</text>
</g>
<!-- 16&#45;&gt;30 -->
<g id="edge10" class="edge">
<title>16&#45;&gt;30</title>
<path fill="none" stroke="black" d="M622.16,-71.67C624.44,-63.79 626.93,-55.15 629.23,-47.2"/>
<polygon fill="black" stroke="black" points="632.58,-48.22 631.99,-37.65 625.85,-46.28 632.58,-48.22"/>
</g>
</g>
</svg>
