<?xml version="1.0" encoding="UTF-8" standalone="no"?>
<!DOCTYPE svg PUBLIC "-//W3C//DTD SVG 1.1//EN"
 "http://www.w3.org/Graphics/SVG/1.1/DTD/svg11.dtd">
<!-- Generated by graphviz version 9.0.0 (0)
 -->
<!-- Title: Tree Pages: 1 -->
<svg width="739pt" height="318pt"
 viewBox="0.00 0.00 738.75 317.75" xmlns="http://www.w3.org/2000/svg" xmlns:xlink="http://www.w3.org/1999/xlink">
<g id="graph0" class="graph" transform="scale(1 1) rotate(0) translate(4 313.75)">
<title>Tree</title>
<polygon fill="white" stroke="none" points="-4,4 -4,-313.75 734.75,-313.75 734.75,4 -4,4"/>
<!-- 0 -->
<g id="node1" class="node">
<title>0</title>
<polygon fill="#fae8db" stroke="black" points="474.25,-309.75 286.5,-309.75 286.5,-254.5 474.25,-254.5 474.25,-309.75"/>
<text text-anchor="middle" x="380.38" y="-292.45" font-family="Helvetica,sans-Serif" font-size="14.00">flipper_length_mm &lt;= 206.0</text>
<text text-anchor="middle" x="380.38" y="-276.7" font-family="Helvetica,sans-Serif" font-size="14.00">samples = 100.0%</text>
<text text-anchor="middle" x="380.38" y="-260.95" font-family="Helvetica,sans-Serif" font-size="14.00">value = [0.474, 0.169, 0.357]</text>
</g>
<!-- 1 -->
<g id="node2" class="node">
<title>1</title>
<polygon fill="#eead7e" stroke="black" points="375.25,-218.5 187.5,-218.5 187.5,-163.25 375.25,-163.25 375.25,-218.5"/>
<text text-anchor="middle" x="281.38" y="-201.2" font-family="Helvetica,sans-Serif" font-size="14.00">bill_length_mm &lt;= 44.2</text>
<text text-anchor="middle" x="281.38" y="-185.45" font-family="Helvetica,sans-Serif" font-size="14.00">samples = 64.5%</text>
<text text-anchor="middle" x="281.38" y="-169.7" font-family="Helvetica,sans-Serif" font-size="14.00">value = [0.741, 0.253, 0.006]</text>
</g>
<!-- 0&#45;&gt;1 -->
<g id="edge1" class="edge">
<title>0&#45;&gt;1</title>
<path fill="none" stroke="black" d="M350.4,-254.1C340.71,-245.37 329.83,-235.56 319.62,-226.35"/>
<polygon fill="black" stroke="black" points="322.14,-223.91 312.37,-219.82 317.45,-229.11 322.14,-223.91"/>
<text text-anchor="middle" x="312.54" y="-238.34" font-family="Helvetica,sans-Serif" font-size="14.00">True</text>
</g>
<!-- 22 -->
<g id="node9" class="node">
<title>22</title>
<polygon fill="#8945e7" stroke="black" points="562,-218.5 396.75,-218.5 396.75,-163.25 562,-163.25 562,-218.5"/>
<text text-anchor="middle" x="479.38" y="-201.2" font-family="Helvetica,sans-Serif" font-size="14.00">body_mass_g &lt;= 4325.0</text>
<text text-anchor="middle" x="479.38" y="-185.45" font-family="Helvetica,sans-Serif" font-size="14.00">samples = 35.5%</text>
<text text-anchor="middle" x="479.38" y="-169.7" font-family="Helvetica,sans-Serif" font-size="14.00">value = [0.03, 0.03, 0.94]</text>
</g>
<!-- 0&#45;&gt;22 -->
<g id="edge8" class="edge">
<title>0&#45;&gt;22</title>
<path fill="none" stroke="black" d="M410.35,-254.1C420.04,-245.37 430.92,-235.56 441.13,-226.35"/>
<polygon fill="black" stroke="black" points="443.3,-229.11 448.38,-219.82 438.61,-223.91 443.3,-229.11"/>
<text text-anchor="middle" x="448.21" y="-238.34" font-family="Helvetica,sans-Serif" font-size="14.00">False</text>
</g>
<!-- 2 -->
<g id="node3" class="node">
<title>2</title>
<polygon fill="#e5833c" stroke="black" points="172.75,-127.25 0,-127.25 0,-72 172.75,-72 172.75,-127.25"/>
<text text-anchor="middle" x="86.38" y="-109.95" font-family="Helvetica,sans-Serif" font-size="14.00">bill_length_mm &lt;= 40.75</text>
<text text-anchor="middle" x="86.38" y="-94.2" font-family="Helvetica,sans-Serif" font-size="14.00">samples = 46.5%</text>
<text text-anchor="middle" x="86.38" y="-78.45" font-family="Helvetica,sans-Serif" font-size="14.00">value = [0.984, 0.016, 0.0]</text>
</g>
<!-- 1&#45;&gt;2 -->
<g id="edge2" class="edge">
<title>1&#45;&gt;2</title>
<path fill="none" stroke="black" d="M222.34,-162.85C201.34,-153.24 177.51,-142.33 155.72,-132.36"/>
<polygon fill="black" stroke="black" points="157.47,-129.32 146.92,-128.34 154.56,-135.68 157.47,-129.32"/>
</g>
<!-- 13 -->
<g id="node6" class="node">
<title>13</title>
<polygon fill="#47e78a" stroke="black" points="371.5,-127.25 191.25,-127.25 191.25,-72 371.5,-72 371.5,-127.25"/>
<text text-anchor="middle" x="281.38" y="-109.95" font-family="Helvetica,sans-Serif" font-size="14.00">body_mass_g &lt;= 4587.5</text>
<text text-anchor="middle" x="281.38" y="-94.2" font-family="Helvetica,sans-Serif" font-size="14.00">samples = 18.1%</text>
<text text-anchor="middle" x="281.38" y="-78.45" font-family="Helvetica,sans-Serif" font-size="14.00">value = [0.047, 0.93, 0.023]</text>
</g>
<!-- 1&#45;&gt;13 -->
<g id="edge5" class="edge">
<title>1&#45;&gt;13</title>
<path fill="none" stroke="black" d="M281.38,-163.1C281.38,-155.58 281.38,-147.25 281.38,-139.18"/>
<polygon fill="black" stroke="black" points="284.88,-139.21 281.38,-129.21 277.88,-139.21 284.88,-139.21"/>
</g>
<!-- 3 -->
<g id="node4" class="node">
<title>3</title>
<polygon fill="#c0c0c0" stroke="black" points="77.38,-36 23.38,-36 23.38,0 77.38,0 77.38,-36"/>
<text text-anchor="middle" x="50.38" y="-12.57" font-family="Helvetica,sans-Serif" font-size="14.00">(...)</text>
</g>
<!-- 2&#45;&gt;3 -->
<g id="edge3" class="edge">
<title>2&#45;&gt;3</title>
<path fill="none" stroke="black" d="M74.19,-71.67C70.54,-63.6 66.54,-54.75 62.87,-46.64"/>
<polygon fill="black" stroke="black" points="66.08,-45.24 58.77,-37.57 59.7,-48.12 66.08,-45.24"/>
</g>
<!-- 4 -->
<g id="node5" class="node">
<title>4</title>
<polygon fill="#c0c0c0" stroke="black" points="149.38,-36 95.38,-36 95.38,0 149.38,0 149.38,-36"/>
<text text-anchor="middle" x="122.38" y="-12.57" font-family="Helvetica,sans-Serif" font-size="14.00">(...)</text>
</g>
<!-- 2&#45;&gt;4 -->
<g id="edge4" class="edge">
<title>2&#45;&gt;4</title>
<path fill="none" stroke="black" d="M98.56,-71.67C102.21,-63.6 106.21,-54.75 109.88,-46.64"/>
<polygon fill="black" stroke="black" points="113.05,-48.12 113.98,-37.57 106.67,-45.24 113.05,-48.12"/>
</g>
<!-- 14 -->
<g id="node7" class="node">
<title>14</title>
<polygon fill="#c0c0c0" stroke="black" points="285.38,-36 231.38,-36 231.38,0 285.38,0 285.38,-36"/>
<text text-anchor="middle" x="258.38" y="-12.57" font-family="Helvetica,sans-Serif" font-size="14.00">(...)</text>
</g>
<!-- 13&#45;&gt;14 -->
<g id="edge6" class="edge">
<title>13&#45;&gt;14</title>
<path fill="none" stroke="black" d="M273.59,-71.67C271.31,-63.79 268.82,-55.15 266.52,-47.2"/>
<polygon fill="black" stroke="black" points="269.9,-46.28 263.76,-37.65 263.17,-48.22 269.9,-46.28"/>
</g>
<!-- 21 -->
<g id="node8" class="node">
<title>21</title>
<polygon fill="#c0c0c0" stroke="black" points="357.38,-36 303.38,-36 303.38,0 357.38,0 357.38,-36"/>
<text text-anchor="middle" x="330.38" y="-12.57" font-family="Helvetica,sans-Serif" font-size="14.00">(...)</text>
</g>
<!-- 13&#45;&gt;21 -->
<g id="edge7" class="edge">
<title>13&#45;&gt;21</title>
<path fill="none" stroke="black" d="M297.96,-71.67C303.1,-63.33 308.75,-54.15 313.87,-45.82"/>
<polygon fill="black" stroke="black" points="316.74,-47.83 319,-37.48 310.78,-44.16 316.74,-47.83"/>
</g>
<!-- 23 -->
<g id="node10" class="node">
<title>23</title>
<polygon fill="#ffffff" stroke="black" points="569.5,-127.25 389.25,-127.25 389.25,-72 569.5,-72 569.5,-127.25"/>
<text text-anchor="middle" x="479.38" y="-109.95" font-family="Helvetica,sans-Serif" font-size="14.00">body_mass_g &lt;= 4150.0</text>
<text text-anchor="middle" x="479.38" y="-94.2" font-family="Helvetica,sans-Serif" font-size="14.00">samples = 3.2%</text>
<text text-anchor="middle" x="479.38" y="-78.45" font-family="Helvetica,sans-Serif" font-size="14.00">value = [0.375, 0.375, 0.25]</text>
</g>
<!-- 22&#45;&gt;23 -->
<g id="edge9" class="edge">
<title>22&#45;&gt;23</title>
<path fill="none" stroke="black" d="M479.38,-163.1C479.38,-155.58 479.38,-147.25 479.38,-139.18"/>
<polygon fill="black" stroke="black" points="482.88,-139.21 479.38,-129.21 475.88,-139.21 482.88,-139.21"/>
</g>
<!-- 28 -->
<g id="node13" class="node">
<title>28</title>
<polygon fill="#8139e5" stroke="black" points="730.75,-119.38 588,-119.38 588,-79.88 730.75,-79.88 730.75,-119.38"/>
<text text-anchor="middle" x="659.38" y="-102.08" font-family="Helvetica,sans-Serif" font-size="14.00">samples = 32.3%</text>
<text text-anchor="middle" x="659.38" y="-86.33" font-family="Helvetica,sans-Serif" font-size="14.00">value = [0.0, 0.0, 1.0]</text>
</g>
<!-- 22&#45;&gt;28 -->
<g id="edge12" class="edge">
<title>22&#45;&gt;28</title>
<path fill="none" stroke="black" d="M533.87,-162.85C558.3,-150.74 586.88,-136.57 610.59,-124.81"/>
<polygon fill="black" stroke="black" points="612.01,-128.02 619.41,-120.44 608.9,-121.75 612.01,-128.02"/>
</g>
<!-- 24 -->
<g id="node11" class="node">
<title>24</title>
<polygon fill="#c0c0c0" stroke="black" points="456.38,-36 402.38,-36 402.38,0 456.38,0 456.38,-36"/>
<text text-anchor="middle" x="429.38" y="-12.57" font-family="Helvetica,sans-Serif" font-size="14.00">(...)</text>
</g>
<!-- 23&#45;&gt;24 -->
<g id="edge10" class="edge">
<title>23&#45;&gt;24</title>
<path fill="none" stroke="black" d="M462.45,-71.67C457.21,-63.33 451.44,-54.15 446.21,-45.82"/>
<polygon fill="black" stroke="black" points="449.26,-44.08 440.98,-37.47 443.33,-47.8 449.26,-44.08"/>
</g>
<!-- 25 -->
<g id="node12" class="node">
<title>25</title>
<polygon fill="#c0c0c0" stroke="black" points="528.38,-36 474.38,-36 474.38,0 528.38,0 528.38,-36"/>
<text text-anchor="middle" x="501.38" y="-12.57" font-family="Helvetica,sans-Serif" font-size="14.00">(...)</text>
</g>
<!-- 23&#45;&gt;25 -->
<g id="edge11" class="edge">
<title>23&#45;&gt;25</title>
<path fill="none" stroke="black" d="M486.82,-71.67C489,-63.79 491.39,-55.15 493.58,-47.2"/>
<polygon fill="black" stroke="black" points="496.93,-48.22 496.22,-37.65 490.19,-46.36 496.93,-48.22"/>
</g>
</g>
</svg>
